<svg xmlns="http://www.w3.org/2000/svg" xmlns:xlink="http://www.w3.org/1999/xlink" width="1000" zoomAndPan="magnify" viewBox="0 0 750 74.999997" height="100" preserveAspectRatio="xMidYMid meet" version="1.0"><defs><g/></defs><g fill="#545454" fill-opacity="1"><g transform="translate(10.500014, 54.249992)"><g><path d="M 10.800781 -31.5 L 24.300781 -31.5 C 25.921875 -31.5 27.398438 -31.09375 28.734375 -30.285156 C 30.066406 -29.476562 31.15625 -28.394531 31.996094 -27.046875 C 32.835938 -25.695312 33.269531 -24.179688 33.300781 -22.5 L 28.800781 -22.5 C 28.800781 -23.730469 28.359375 -24.789062 27.472656 -25.671875 C 26.585938 -26.558594 25.53125 -27 24.300781 -27 L 10.800781 -27 C 9.570312 -27 8.511719 -26.558594 7.628906 -25.671875 C 6.742188 -24.789062 6.300781 -23.730469 6.300781 -22.5 L 6.300781 -9 C 6.300781 -7.769531 6.742188 -6.710938 7.628906 -5.828125 C 8.511719 -4.941406 9.570312 -4.5 10.800781 -4.5 L 24.300781 -4.5 C 25.53125 -4.5 26.585938 -4.941406 27.472656 -5.828125 C 28.359375 -6.710938 28.800781 -7.769531 28.800781 -9 L 33.300781 -9 C 33.300781 -7.410156 32.902344 -5.933594 32.109375 -4.566406 C 31.3125 -3.203125 30.234375 -2.101562 28.867188 -1.261719 C 27.503906 -0.421875 25.980469 0 24.300781 0 L 10.800781 0 C 9.210938 0 7.726562 -0.398438 6.34375 -1.191406 C 4.964844 -1.988281 3.863281 -3.066406 3.039062 -4.433594 C 2.210938 -5.796875 1.800781 -7.320312 1.800781 -9 L 1.800781 -22.5 C 1.800781 -24.121094 2.199219 -25.605469 2.992188 -26.953125 C 3.789062 -28.304688 4.867188 -29.390625 6.234375 -30.21875 C 7.597656 -31.042969 9.121094 -31.46875 10.800781 -31.5 Z M 10.800781 -31.5 "/></g></g></g><g fill="#545454" fill-opacity="1"><g transform="translate(45.149975, 54.249992)"><g><path d="M 6.75 -31.5 L 6.75 -18 L 29.25 -18 L 29.25 -31.5 L 33.75 -31.5 L 33.75 0 L 29.25 0 L 29.25 -13.5 L 6.75 -13.5 L 6.75 0 L 2.25 0 L 2.25 -31.5 Z M 6.75 -31.5 "/></g></g></g><g fill="#545454" fill-opacity="1"><g transform="translate(81.149937, 54.249992)"><g><path d="M 24.75 -27 L 11.25 -27 C 10.019531 -27 8.960938 -26.558594 8.078125 -25.671875 C 7.191406 -24.789062 6.75 -23.730469 6.75 -22.5 L 6.75 -13.5 L 29.25 -13.5 L 29.25 -22.5 C 29.25 -23.730469 28.808594 -24.789062 27.921875 -25.671875 C 27.039062 -26.558594 25.980469 -27 24.75 -27 Z M 33.75 -22.5 L 33.75 0 L 29.25 0 L 29.25 -9 L 6.75 -9 L 6.75 0 L 2.25 0 L 2.25 -22.5 C 2.25 -24.089844 2.648438 -25.566406 3.441406 -26.933594 C 4.238281 -28.296875 5.316406 -29.398438 6.683594 -30.238281 C 8.046875 -31.078125 9.570312 -31.5 11.25 -31.5 L 24.75 -31.5 C 26.371094 -31.5 27.847656 -31.09375 29.183594 -30.285156 C 30.515625 -29.476562 31.605469 -28.394531 32.445312 -27.046875 C 33.285156 -25.695312 33.71875 -24.179688 33.75 -22.5 Z M 33.75 -22.5 "/></g></g></g><g fill="#545454" fill-opacity="1"><g transform="translate(117.1499, 54.249992)"><g><path d="M 29.25 -18 L 29.25 -22.5 C 29.25 -23.730469 28.808594 -24.789062 27.921875 -25.671875 C 27.039062 -26.558594 25.980469 -27 24.75 -27 L 6.75 -27 L 6.75 -13.5 L 24.75 -13.5 C 25.980469 -13.5 27.039062 -13.941406 27.921875 -14.828125 C 28.808594 -15.710938 29.25 -16.769531 29.25 -18 Z M 33.75 -22.5 L 33.75 -18 C 33.75 -16.410156 33.351562 -14.933594 32.558594 -13.566406 C 31.761719 -12.203125 30.683594 -11.101562 29.316406 -10.261719 C 27.953125 -9.421875 26.429688 -9 24.75 -9 L 6.75 -9 L 6.75 0 L 2.25 0 L 2.25 -31.5 L 24.75 -31.5 C 26.371094 -31.5 27.847656 -31.09375 29.183594 -30.285156 C 30.515625 -29.476562 31.605469 -28.394531 32.445312 -27.046875 C 33.285156 -25.695312 33.71875 -24.179688 33.75 -22.5 Z M 33.75 -22.5 "/></g></g></g><g fill="#545454" fill-opacity="1"><g transform="translate(152.249865, 54.249992)"><g><path d="M 20.25 -3.960938 L 6.75 -23.445312 L 6.75 0 L 2.25 0 L 2.25 -31.5 L 6.75 -31.5 L 20.25 -12.015625 L 33.75 -31.5 L 38.25 -31.5 L 38.25 0 L 33.75 0 L 33.75 -23.445312 Z M 20.25 -3.960938 "/></g></g></g><g fill="#545454" fill-opacity="1"><g transform="translate(192.749827, 54.249992)"><g><path d="M 24.75 -27 L 11.25 -27 C 10.019531 -27 8.960938 -26.558594 8.078125 -25.671875 C 7.191406 -24.789062 6.75 -23.730469 6.75 -22.5 L 6.75 -13.5 L 29.25 -13.5 L 29.25 -22.5 C 29.25 -23.730469 28.808594 -24.789062 27.921875 -25.671875 C 27.039062 -26.558594 25.980469 -27 24.75 -27 Z M 33.75 -22.5 L 33.75 0 L 29.25 0 L 29.25 -9 L 6.75 -9 L 6.75 0 L 2.25 0 L 2.25 -22.5 C 2.25 -24.089844 2.648438 -25.566406 3.441406 -26.933594 C 4.238281 -28.296875 5.316406 -29.398438 6.683594 -30.238281 C 8.046875 -31.078125 9.570312 -31.5 11.25 -31.5 L 24.75 -31.5 C 26.371094 -31.5 27.847656 -31.09375 29.183594 -30.285156 C 30.515625 -29.476562 31.605469 -28.394531 32.445312 -27.046875 C 33.285156 -25.695312 33.71875 -24.179688 33.75 -22.5 Z M 33.75 -22.5 "/></g></g></g><g fill="#545454" fill-opacity="1"><g transform="translate(228.749789, 54.249992)"><g><path d="M 33.75 -31.5 L 33.75 0 L 29.25 0 L 6.75 -24.210938 L 6.75 0 L 2.25 0 L 2.25 -31.5 L 6.75 -31.5 L 29.25 -7.648438 L 29.25 -31.5 Z M 33.75 -31.5 "/></g></g></g><g fill="#545454" fill-opacity="1"><g transform="translate(264.749763, 54.249992)"><g/></g><g transform="translate(282.749763, 54.249992)"><g><path d="M 6.75 -27 L 6.75 -18 L 29.25 -18 L 29.25 -13.5 L 6.75 -13.5 L 6.75 -4.5 L 33.75 -4.5 L 33.75 0 L 2.25 0 L 2.25 -31.5 L 33.75 -31.5 L 33.75 -27 Z M 6.75 -27 "/></g></g></g><g fill="#545454" fill-opacity="1"><g transform="translate(317.849727, 54.249992)"><g><path d="M 33.75 -31.5 L 33.75 0 L 29.25 0 L 6.75 -24.210938 L 6.75 0 L 2.25 0 L 2.25 -31.5 L 6.75 -31.5 L 29.25 -7.648438 L 29.25 -31.5 Z M 33.75 -31.5 "/></g></g></g><g fill="#545454" fill-opacity="1"><g transform="translate(353.8497, 54.249992)"><g><path d="M 31.5 -27 L 18 -27 L 18 0 L 13.5 0 L 13.5 -27 L 0 -27 L 0 -31.5 L 31.5 -31.5 Z M 31.5 -27 "/></g></g></g><g fill="#545454" fill-opacity="1"><g transform="translate(385.349652, 54.249992)"><g><path d="M 29.25 -18 L 29.25 -22.5 C 29.25 -23.730469 28.808594 -24.789062 27.921875 -25.671875 C 27.039062 -26.558594 25.980469 -27 24.75 -27 L 6.75 -27 L 6.75 -13.5 L 24.75 -13.5 C 25.980469 -13.5 27.039062 -13.941406 27.921875 -14.828125 C 28.808594 -15.710938 29.25 -16.769531 29.25 -18 Z M 33.75 0 L 30.554688 0 L 21.554688 -9 L 6.75 -9 L 6.75 0 L 2.25 0 L 2.25 -31.5 L 24.75 -31.5 C 26.339844 -31.5 27.816406 -31.09375 29.183594 -30.285156 C 30.546875 -29.476562 31.648438 -28.394531 32.488281 -27.046875 C 33.328125 -25.695312 33.75 -24.179688 33.75 -22.5 L 33.75 -18 C 33.75 -16.078125 33.171875 -14.332031 32.015625 -12.757812 C 30.863281 -11.183594 29.355469 -10.078125 27.496094 -9.449219 L 33.75 -3.195312 Z M 33.75 0 "/></g></g></g><g fill="#545454" fill-opacity="1"><g transform="translate(420.899621, 54.249992)"><g><path d="M 6.75 -27 L 6.75 -18 L 29.25 -18 L 29.25 -13.5 L 6.75 -13.5 L 6.75 -4.5 L 33.75 -4.5 L 33.75 0 L 2.25 0 L 2.25 -31.5 L 33.75 -31.5 L 33.75 -27 Z M 6.75 -27 "/></g></g></g><g fill="#545454" fill-opacity="1"><g transform="translate(455.99961, 54.249992)"><g><path d="M 29.25 -18 L 29.25 -22.5 C 29.25 -23.730469 28.808594 -24.789062 27.921875 -25.671875 C 27.039062 -26.558594 25.980469 -27 24.75 -27 L 6.75 -27 L 6.75 -13.5 L 24.75 -13.5 C 25.980469 -13.5 27.039062 -13.941406 27.921875 -14.828125 C 28.808594 -15.710938 29.25 -16.769531 29.25 -18 Z M 33.75 -22.5 L 33.75 -18 C 33.75 -16.410156 33.351562 -14.933594 32.558594 -13.566406 C 31.761719 -12.203125 30.683594 -11.101562 29.316406 -10.261719 C 27.953125 -9.421875 26.429688 -9 24.75 -9 L 6.75 -9 L 6.75 0 L 2.25 0 L 2.25 -31.5 L 24.75 -31.5 C 26.371094 -31.5 27.847656 -31.09375 29.183594 -30.285156 C 30.515625 -29.476562 31.605469 -28.394531 32.445312 -27.046875 C 33.285156 -25.695312 33.71875 -24.179688 33.75 -22.5 Z M 33.75 -22.5 "/></g></g></g><g fill="#545454" fill-opacity="1"><g transform="translate(491.099552, 54.249992)"><g><path d="M 29.25 -18 L 29.25 -22.5 C 29.25 -23.730469 28.808594 -24.789062 27.921875 -25.671875 C 27.039062 -26.558594 25.980469 -27 24.75 -27 L 6.75 -27 L 6.75 -13.5 L 24.75 -13.5 C 25.980469 -13.5 27.039062 -13.941406 27.921875 -14.828125 C 28.808594 -15.710938 29.25 -16.769531 29.25 -18 Z M 33.75 0 L 30.554688 0 L 21.554688 -9 L 6.75 -9 L 6.75 0 L 2.25 0 L 2.25 -31.5 L 24.75 -31.5 C 26.339844 -31.5 27.816406 -31.09375 29.183594 -30.285156 C 30.546875 -29.476562 31.648438 -28.394531 32.488281 -27.046875 C 33.328125 -25.695312 33.75 -24.179688 33.75 -22.5 L 33.75 -18 C 33.75 -16.078125 33.171875 -14.332031 32.015625 -12.757812 C 30.863281 -11.183594 29.355469 -10.078125 27.496094 -9.449219 L 33.75 -3.195312 Z M 33.75 0 "/></g></g></g><g fill="#545454" fill-opacity="1"><g transform="translate(526.649521, 54.249992)"><g><path d="M 6.75 -27 L 6.75 -18 L 29.25 -18 L 29.25 -13.5 L 6.75 -13.5 L 6.75 -4.5 L 33.75 -4.5 L 33.75 0 L 2.25 0 L 2.25 -31.5 L 33.75 -31.5 L 33.75 -27 Z M 6.75 -27 "/></g></g></g><g fill="#545454" fill-opacity="1"><g transform="translate(561.749509, 54.249992)"><g><path d="M 33.75 -31.5 L 33.75 0 L 29.25 0 L 6.75 -24.210938 L 6.75 0 L 2.25 0 L 2.25 -31.5 L 6.75 -31.5 L 29.25 -7.648438 L 29.25 -31.5 Z M 33.75 -31.5 "/></g></g></g><g fill="#545454" fill-opacity="1"><g transform="translate(597.749461, 54.249992)"><g><path d="M 6.75 -27 L 6.75 -18 L 29.25 -18 L 29.25 -13.5 L 6.75 -13.5 L 6.75 -4.5 L 33.75 -4.5 L 33.75 0 L 2.25 0 L 2.25 -31.5 L 33.75 -31.5 L 33.75 -27 Z M 6.75 -27 "/></g></g></g><g fill="#545454" fill-opacity="1"><g transform="translate(632.849449, 54.249992)"><g><path d="M 29.25 -9 L 29.25 -31.5 L 33.75 -31.5 L 33.75 -9 C 33.75 -7.410156 33.351562 -5.933594 32.558594 -4.566406 C 31.761719 -3.203125 30.683594 -2.101562 29.316406 -1.261719 C 27.953125 -0.421875 26.429688 0 24.75 0 L 11.25 0 C 9.660156 0 8.175781 -0.398438 6.796875 -1.191406 C 5.414062 -1.988281 4.3125 -3.066406 3.488281 -4.433594 C 2.664062 -5.796875 2.25 -7.320312 2.25 -9 L 2.25 -31.5 L 6.75 -31.5 L 6.75 -9 C 6.75 -7.769531 7.191406 -6.710938 8.078125 -5.828125 C 8.960938 -4.941406 10.019531 -4.5 11.25 -4.5 L 24.75 -4.5 C 25.980469 -4.5 27.039062 -4.941406 27.921875 -5.828125 C 28.808594 -6.710938 29.25 -7.769531 29.25 -9 Z M 29.25 -9 "/></g></g></g><g fill="#545454" fill-opacity="1"><g transform="translate(668.8494, 54.249992)"><g><path d="M 29.25 -18 L 29.25 -22.5 C 29.25 -23.730469 28.808594 -24.789062 27.921875 -25.671875 C 27.039062 -26.558594 25.980469 -27 24.75 -27 L 6.75 -27 L 6.75 -13.5 L 24.75 -13.5 C 25.980469 -13.5 27.039062 -13.941406 27.921875 -14.828125 C 28.808594 -15.710938 29.25 -16.769531 29.25 -18 Z M 33.75 0 L 30.554688 0 L 21.554688 -9 L 6.75 -9 L 6.75 0 L 2.25 0 L 2.25 -31.5 L 24.75 -31.5 C 26.339844 -31.5 27.816406 -31.09375 29.183594 -30.285156 C 30.546875 -29.476562 31.648438 -28.394531 32.488281 -27.046875 C 33.328125 -25.695312 33.75 -24.179688 33.75 -22.5 L 33.75 -18 C 33.75 -16.078125 33.171875 -14.332031 32.015625 -12.757812 C 30.863281 -11.183594 29.355469 -10.078125 27.496094 -9.449219 L 33.75 -3.195312 Z M 33.75 0 "/></g></g></g><g fill="#545454" fill-opacity="1"><g transform="translate(704.399369, 54.249992)"><g><path d="M 33.300781 -9 C 33.300781 -7.410156 32.902344 -5.933594 32.109375 -4.566406 C 31.3125 -3.203125 30.234375 -2.101562 28.867188 -1.261719 C 27.503906 -0.421875 25.980469 0 24.300781 0 L 10.800781 0 C 9.179688 0 7.695312 -0.398438 6.34375 -1.191406 C 4.996094 -1.988281 3.914062 -3.066406 3.105469 -4.433594 C 2.296875 -5.796875 1.859375 -7.320312 1.800781 -9 L 6.300781 -9 C 6.300781 -7.769531 6.742188 -6.710938 7.628906 -5.828125 C 8.511719 -4.941406 9.570312 -4.5 10.800781 -4.5 L 24.300781 -4.5 C 25.53125 -4.5 26.585938 -4.941406 27.472656 -5.828125 C 28.359375 -6.710938 28.800781 -7.769531 28.800781 -9 C 28.800781 -10.230469 28.359375 -11.289062 27.472656 -12.171875 C 26.585938 -13.058594 25.53125 -13.5 24.300781 -13.5 L 10.800781 -13.5 C 9.210938 -13.5 7.726562 -13.898438 6.34375 -14.691406 C 4.964844 -15.488281 3.863281 -16.566406 3.039062 -17.933594 C 2.210938 -19.296875 1.800781 -20.820312 1.800781 -22.5 C 1.800781 -24.089844 2.199219 -25.566406 2.992188 -26.933594 C 3.789062 -28.296875 4.867188 -29.398438 6.234375 -30.238281 C 7.597656 -31.078125 9.121094 -31.5 10.800781 -31.5 L 24.300781 -31.5 C 25.921875 -31.5 27.398438 -31.09375 28.734375 -30.285156 C 30.066406 -29.476562 31.15625 -28.394531 31.996094 -27.046875 C 32.835938 -25.695312 33.269531 -24.179688 33.300781 -22.5 L 28.800781 -22.5 C 28.800781 -23.730469 28.359375 -24.789062 27.472656 -25.671875 C 26.585938 -26.558594 25.53125 -27 24.300781 -27 L 10.800781 -27 C 9.570312 -27 8.511719 -26.558594 7.628906 -25.671875 C 6.742188 -24.789062 6.300781 -23.730469 6.300781 -22.5 C 6.300781 -21.269531 6.742188 -20.210938 7.628906 -19.328125 C 8.511719 -18.441406 9.570312 -18 10.800781 -18 L 24.300781 -18 C 25.890625 -18 27.367188 -17.59375 28.734375 -16.785156 C 30.097656 -15.976562 31.199219 -14.894531 32.039062 -13.546875 C 32.878906 -12.195312 33.300781 -10.679688 33.300781 -9 Z M 33.300781 -9 "/></g></g></g></svg>